General
      Complete name : Road.to.Perdition.2002.BRRip.H264.AAC.5.1ch.Gopo.mp4
      Format : MPEG-4
      Format profile : Base Media
      Codec ID : isom
      File size : 1.81 GiB
      Duration : 1h 56mn
      Overall bit rate : 2 219 Kbps
      Encoded date : UTC 2010-04-19 08:29:19
      Tagged date : UTC 2010-04-19 08:29:19
   Video #1
      ID : 1
      Format : AVC
      Format/Info : Advanced Video Codec
      Format profile : High@L4.1
      Format settings, CABAC : Yes
      Format settings, ReFrames : 5 frames
      Codec ID : avc1
      Codec ID/Info : Advanced Video Coding
      Duration : 1h 56mn
      Bit rate mode : Variable
      Bit rate : 1 887 Kbps
      Maximum bit rate : 11.9 Mbps
      Width : 1 280 pixels
      Height : 544 pixels
      Display aspect ratio : 2.35:1
      Frame rate mode : Constant
      Frame rate : 23.976 fps
      Resolution : 24 bits
      Colorimetry : 4:2:0
      Scan type : Progressive
      Bits/(Pixel*Frame) : 0.113
      Stream size : 1.54 GiB (85%)
      Writing library : x264 core 92 r1523 25ca5b0
      Encoding settings : cabac=1 / ref=5 / deblock=1:-3:1 / analyse=0x3:0x133 / me=umh / subme=7 / psy=1 / psy_rd=1.00:0.08 / mixed_ref=1 / me_range=32 / chroma_me=1 / trellis=2 / 8x8dct=1 / cqm=0 / deadzone=21,11 / fast_pskip=0 / chroma_qp_offset=-3 / threads=3 / sliced_threads=0 / nr=0 / decimate=1 / interlaced=0 / constrained_intra=0 / bframes=6 / b_pyramid=2 / b_adapt=2 / b_bias=0 / direct=1 / wpredb=1 / wpredp=2 / keyint=250 / keyint_min=25 / scenecut=40 / intra_refresh=0 / rc_lookahead=40 / rc=2pass / mbtree=1 / bitrate=1887 / ratetol=1.0 / qcomp=0.60 / qpmin=10 / qpmax=51 / qpstep=4 / cplxblur=20.0 / qblur=0.5 / vbv_maxrate=50000 / vbv_bufsize=50000 / ip_ratio=1.40 / aq=1:1.00 / nal_hrd=none
      Encoded date : UTC 2010-04-18 15:34:34
      Tagged date : UTC 2010-04-19 08:32:13
   Audio #2
      ID : 2
      Format : AAC
      Format/Info : Advanced Audio Codec
      Format version : Version 4
      Format profile : LC
      Format settings, SBR : No
      Codec ID : 40
      Duration : 1h 56mn
      Bit rate mode : Variable
      Bit rate : 330 Kbps
      Maximum bit rate : 459 Kbps
      Channel(s) : 6 channels
      Channel positions : Front: L C R, Rear: L R, LFE
      Sampling rate : 48.0 KHz
      Resolution : 16 bits
      Stream size : 276 MiB (15%)
      Encoded date : UTC 2010-04-19 08:31:27
      Tagged date : UTC 2010-04-19 08:32:13
	Sample : YES
	Subtitle : English,Romanian

PLOT
Bonds of loyalty are put to the test when a hitman's son witnesses what his father does for a living.
Director: Sam Mendes
CASTING 

      Tom Hanks	... 	Michael Sullivan
	Tyler Hoechlin	... 	Michael Sullivan Jr.
	Rob Maxey	... 	Drugstore Owner
	Paul Newman	... 	John Rooney
	Liam Aiken	... 	Peter Sullivan
	Jude Law	... 	Harlen Maguire
	Jennifer Jason Leigh	... 	Annie Sullivan
	Daniel Craig	... 	Connor Rooney
	Ciarán Hinds	... 	Finn McGovern
	Craig Spidle	... 	Rooney's Henchman
	Ian Barford	... 	Rooney's Henchman
	Stephen P. Dunn	... 	Finn McGovern's Henchman (as Stephen Dunn)
	Paul Turner	... 	Finn McGovern's Henchman
	Kathleen Keane	... 	Irish Musician
	Brendan McKinney	... 	Irish Musician

SOURCE: Road.to.Perdition.2002.720p.BluRay.x264.DTS-WiKi.mkv

Notes: For best performance I suggest you to use KMPlayer(find it with google) for playback
These movies were made especially for PC and they don't play on a PS3.If you want to re-encode for PS3 or test for other devices be my guests.
I'll ask everybody to stop with the ''it doesn't work'',''it's out of sync'' comments because I tested the movies before I uploaded them and they work fine.